# xmcd
#
# Track frame offsets:
#	150
#	10622
#	26260
#	42035
#	54575
#	66950
#	84635
#	102960
#	115655
#	128002
#	139800
#	150860
#	164720
#	180455
#
# Disc length: 2491 seconds
# Revision: 6
# Processed by: cddbd v1.5.2PL0 Copyright (c) Steve Scherf et al.
# Submitted via: dBpowerAMP V12.0
#
DISCID=a609b90e
DTITLE=Bill Monroe and The Blue Grass Boys - Live - Volume 1
DYEAR=2001
DGENRE=Bluegrass
TTITLE0=Introduction - Love, Come Home
TTITLE1=Willie Moore
TTITLE2=Blue Grass Breakdown
TTITLE3=Muleskinner Blues
TTITLE4=Kentucky Waltz
TTITLE5=Southern Flavor
TTITLE6=The Old Cross Road
TTITLE7=Wheel Hoss
TTITLE8=Uncle Pen
TTITLE9=Shenandoah Breakdown
TTITLE10=It's Mighty Dark to Travel
TTITLE11=Dog House Blues
TTITLE12=Rawhide
TTITLE13=Theme: Watermelon on the Vine
EXTD=
EXTT0=
EXTT1=
EXTT2=
EXTT3=
EXTT4=
EXTT5=
EXTT6=
EXTT7=
EXTT8=
EXTT9=
EXTT10=
EXTT11=
EXTT12=
EXTT13=
PLAYORDER=
